<svg width="32" height="32" viewBox="0 0 32 32" fill="none" xmlns="http://www.w3.org/2000/svg">
<g clip-path="url(#clip0_16443_21266)">
<path d="M19 8C20.1046 8 21 8.89543 21 10V12.1055L19.5 12.9717V10C19.5 9.72386 19.2761 9.5 19 9.5H6C5.72386 9.5 5.5 9.72386 5.5 10V22C5.5 22.2761 5.72386 22.5 6 22.5H19C19.2761 22.5 19.5 22.2761 19.5 22V18.7363L21 19.6025V22C21 23.0357 20.2128 23.887 19.2041 23.9893L19 24H6L5.7959 23.9893C4.78722 23.887 4 23.0357 4 22V10C4 8.89543 4.89543 8 6 8H19Z" fill="#282828"/>
<path fill-rule="evenodd" clip-rule="evenodd" d="M26.3525 9.8457C27.0191 9.46095 27.8524 9.94226 27.8525 10.7119V21.0342C27.8524 21.7557 27.1202 22.2231 26.4795 21.9619L26.3535 21.9004L17.4141 16.7393L17.2959 16.6602C16.7494 16.2359 16.7884 15.3677 17.4131 15.0068L26.3525 9.8457ZM18.9131 15.873L26.3525 20.168V11.5771L18.9131 15.873Z" fill="#282828"/>
</g>
<defs>
<clipPath id="clip0_16443_21266">
<rect width="32" height="32" fill="white"/>
</clipPath>
</defs>
</svg>
