<svg width="24" height="24" viewBox="0 0 24 24" fill="none" xmlns="http://www.w3.org/2000/svg">
<path fill-rule="evenodd" clip-rule="evenodd" d="M6.3999 2.40039C4.19076 2.40039 2.3999 4.19125 2.3999 6.40039V17.6004C2.3999 19.8095 4.19076 21.6004 6.3999 21.6004H17.5999C19.809 21.6004 21.5999 19.8095 21.5999 17.6004V6.40039C21.5999 4.19125 19.809 2.40039 17.5999 2.40039H6.3999ZM14.6761 7.09173C14.1422 6.78917 13.5052 6.63789 12.7653 6.63789H8.9999V16.9445H11.1495V13.5919H12.8215C13.524 13.5919 14.1375 13.4406 14.662 13.1381C15.1959 12.8355 15.6034 12.4207 15.8844 11.8937C16.1747 11.3569 16.3199 10.7664 16.3199 10.1222C16.3199 9.45853 16.1794 8.86317 15.8984 8.33613C15.6174 7.79933 15.21 7.38453 14.6761 7.09173ZM12.5686 11.6741H11.1495V8.55573H12.5686C12.8964 8.55573 13.1774 8.62405 13.4116 8.76069C13.6551 8.88757 13.8378 9.06813 13.9595 9.30237C14.0813 9.53661 14.1422 9.80989 14.1422 10.1222C14.1422 10.5809 14.0017 10.9567 13.7207 11.2495C13.4397 11.5325 13.0556 11.6741 12.5686 11.6741Z" fill="#3197DF"/>
</svg>
