<svg width="24" height="24" viewBox="0 0 24 24" fill="none" xmlns="http://www.w3.org/2000/svg">
<path d="M12.0068 19.7196C16.2672 19.7196 19.7211 16.2658 19.7211 12.0053C19.7211 7.74482 16.2672 4.29102 12.0068 4.29102C7.74628 4.29102 4.29248 7.74482 4.29248 12.0053C4.29248 16.2658 7.74628 19.7196 12.0068 19.7196Z" fill="url(#paint0_linear_17262_809)"/>
<path fill-rule="evenodd" clip-rule="evenodd" d="M7.77886 11.921C10.027 10.9446 11.5236 10.2959 12.2751 9.98114C14.414 9.08831 14.8637 8.93416 15.1527 8.92773C15.2169 8.92773 15.3583 8.94058 15.4546 9.01766C15.5317 9.08189 15.551 9.16539 15.5638 9.22963C15.5766 9.29386 15.5895 9.42875 15.5766 9.53152C15.461 10.7519 14.96 13.713 14.7031 15.0748C14.5939 15.6528 14.3819 15.8455 14.1764 15.8648C13.7268 15.9033 13.3863 15.5693 12.956 15.2867C12.2751 14.8435 11.8961 14.5673 11.2346 14.1305C10.4702 13.6295 10.9648 13.3533 11.4016 12.9037C11.5172 12.7881 13.4891 10.9896 13.5276 10.829C13.5341 10.8097 13.5341 10.7327 13.4891 10.6941C13.4441 10.6556 13.3799 10.6684 13.3285 10.6813C13.2579 10.6941 12.1788 11.4135 10.0784 12.8331C9.77006 13.045 9.49386 13.1478 9.24335 13.1414C8.96716 13.1349 8.44045 12.9872 8.04221 12.8587C7.56047 12.7046 7.17508 12.6211 7.20719 12.3513C7.22646 12.21 7.41916 12.0687 7.77886 11.921Z" fill="white"/>
<defs>
<linearGradient id="paint0_linear_17262_809" x1="12.0003" y1="4.29102" x2="12.0003" y2="19.5975" gradientUnits="userSpaceOnUse">
<stop stop-color="#2AABEE"/>
<stop offset="1" stop-color="#229ED9"/>
</linearGradient>
</defs>
</svg>
